<svg width="13" height="15" viewBox="0 0 13 15" fill="none" xmlns="http://www.w3.org/2000/svg">
<path d="M3.83122 10.5741L5.66065 13.3449C5.75708 13.491 5.88336 13.6098 6.0292 13.6917C6.17505 13.7736 6.33634 13.8163 6.49994 13.8163C6.66354 13.8163 6.82483 13.7736 6.97067 13.6917C7.11652 13.6098 7.2428 13.491 7.33923 13.3449L9.16869 10.5741C11.4237 10.9342 12.9941 11.736 12.9941 12.6679C12.9941 13.9365 10.0866 14.9648 6.5 14.9648C2.91338 14.9648 0.00585938 13.9365 0.00585938 12.6679C0.00585938 11.736 1.57615 10.9342 3.83122 10.5741Z" fill="#DFEEB6"/>
<path d="M6.50001 12.668L3.07594 7.48181C2.61469 6.78319 2.33741 5.9571 2.2748 5.09502C2.21219 4.23295 2.3667 3.36855 2.72122 2.59755C3.07573 1.82656 3.61641 1.17907 4.28337 0.72681C4.95033 0.274546 5.71753 0.0351562 6.50001 0.0351562C7.28249 0.0351562 8.0497 0.274546 8.71666 0.72681C9.38362 1.17907 9.9243 1.82656 10.2788 2.59755C10.6333 3.36855 10.7878 4.23295 10.7252 5.09502C10.6626 5.9571 10.3853 6.78319 9.92409 7.48181L6.50001 12.668ZM6.50001 2.64073C6.1279 2.64073 5.76414 2.76269 5.45474 2.99118C5.14534 3.21968 4.90419 3.54445 4.76179 3.92443C4.61939 4.30441 4.58213 4.72253 4.65472 5.12591C4.72732 5.52929 4.90651 5.89982 5.16963 6.19064C5.43276 6.48146 5.768 6.67952 6.13296 6.75975C6.49793 6.83999 6.87622 6.79881 7.22001 6.64142C7.5638 6.48403 7.85764 6.21749 8.06437 5.87552C8.27111 5.53355 8.38145 5.1315 8.38145 4.72022C8.38145 4.1687 8.18323 3.63978 7.83039 3.2498C7.47755 2.85982 6.999 2.64073 6.50001 2.64073V2.64073Z" fill="#DFEEB6"/>
</svg>
