<svg width="16" height="16" viewBox="0 0 16 16" fill="none" xmlns="http://www.w3.org/2000/svg">
<g clip-path="url(#clip0_786_22)">
<path fill-rule="evenodd" clip-rule="evenodd" d="M14.4267 10.8978L12.1689 10.64C11.6267 10.5778 11.0933 10.7645 10.7111 11.1467L9.07556 12.7822C6.56001 11.5022 4.49778 9.44891 3.21778 6.92447L4.86223 5.28002C5.24445 4.8978 5.43112 4.36447 5.36889 3.82224L5.11112 1.58224C5.00445 0.684467 4.24889 0.00891113 3.34223 0.00891113H1.80445C0.800006 0.00891113 -0.0355499 0.844467 0.0266723 1.84891C0.497783 9.44002 6.56889 15.5022 14.1511 15.9734C15.1556 16.0356 15.9911 15.2 15.9911 14.1956V12.6578C16 11.76 15.3244 11.0045 14.4267 10.8978Z" fill="#DFEEB6"/>
</g>
<defs>
<clipPath id="clip0_786_22">
<rect width="16" height="16" fill="white"/>
</clipPath>
</defs>
</svg>
